Simulation
nRows=15
nColumns=15
endheader
time  TH_x TH_y TH_z SC_y  SC_z  SC_x  AC_y  AC_z  AC_x  GH_y  GH_z  GH_yy  EL_x  PS_y
0.0  0.000000  0.000000  0.000000  -42.787554810239165  3.112914549990066  18.88637567046743  45.52392478764785  -5.528386950885275  -12.087917400413021  -32.165022517144955  0.5294667501127054  57.16903907444697  23.011309044173526  120.000000
0.028900000000000006  0.000000  0.000000  0.000000  -41.38349090307774  4.488654196927752  18.17779827895969  44.763560296943815  -4.590030059750541  -10.99856278622612  -31.799172202689125  0.24254428334910472  56.94176405460081  22.865221306271064  120.000000
0.05780000000000001  0.000000  0.000000  0.000000  -40.29767985661119  5.515026077652493  17.515548601396464  44.011388398927714  -3.9133215012318594  -10.316821426038352  -31.39814756985613  -0.029391740816942555  56.710033665824454  22.711180160784814  120.000000
0.08670000000000001  0.000000  0.000000  0.000000  -39.584180541595195  6.235090314149479  16.988829367681273  43.28584875227887  -3.4960216146154712  -10.007311782983184  -30.929039018746373  -0.3207214580477772  56.462885174128466  22.589261437491988  120.000000
0.11560000000000002  0.000000  0.000000  0.000000  -39.164858557137336  6.668881619090477  16.67662159123948  42.627915021179085  -3.317079936236182  -10.064918365610142  -30.380381046567933  -0.6253228671791825  56.165622430144914  22.511233811884928  120.000000
0.14450000000000002  0.000000  0.000000  0.000000  -38.9703766170408  6.885267585512653  16.6310490829982  42.08738538969306  -3.3696959121605574  -10.410894343230954  -29.75383893715682  -0.9117112945050251  55.7663933549137  22.46566695835058  120.000000
0.17340000000000003  0.000000  0.000000  0.000000  -38.95279733203944  6.953445730492334  16.875052688921507  41.722234821155126  -3.636083871329776  -10.924407965585605  -29.06919378305024  -1.1347254207004003  55.19316310716542  22.433855587014516  120.000000
0.20230000000000004  0.000000  0.000000  0.000000  -39.098748647357596  6.924270424427638  17.4054343705028  41.601684356826574  -4.083896334593149  -11.463640034674352  -28.354106538178655  -1.248843346029189  54.36984388021782  22.38416283009846  120.000000
0.23120000000000004  0.000000  0.000000  0.000000  -39.42374097375543  6.830910074881745  18.185585384959843  41.78450977859382  -4.660095948536023  -11.88912783018954  -27.634298635007063  -1.2217456884302993  53.23549560352536  22.28051034496168  120.000000
0.26010000000000005  0.000000  0.000000  0.000000  -39.939752043498785  6.683053903145376  19.147267029821773  42.303964268111315  -5.297510428153654  -12.10003212023681  -26.926028002073252  -1.0158033504784398  51.76343742506234  22.108724851511422  120.000000
0.28900000000000003  0.000000  0.000000  0.000000  -40.611953775696605  6.479436716643806  20.185393723462763  43.13413281211923  -5.934896595907735  -12.050829068487115  -26.218798618186344  -0.5597872674070615  49.98700496351596  21.897705490714436  120.000000
0.31790000000000007  0.000000  0.000000  0.000000  -41.32984628721196  6.245843727656233  21.16281072558638  44.157060101929865  -6.552300759487554  -11.759187081366091  -25.46555503920671  0.2564253203250601  48.011318355627054  21.733853252316273  120.000000
0.34680000000000005  0.000000  0.000000  0.000000  -41.93798676881463  6.051500052809192  21.950904271623013  45.16646267743965  -7.178083950742014  -11.31330045373796  -24.592297515059222  1.5389186301835287  45.99390656290603  21.73928701567989  120.000000
0.3757000000000001  0.000000  0.000000  0.000000  -42.32021079621514  5.9716314380063515  22.492160510024306  45.94079294440116  -7.851667823773544  -10.853897021444725  -23.54138686889417  3.3177800944422517  44.07810555276971  21.99707199523912  120.000000
0.40460000000000007  0.000000  0.000000  0.000000  -42.46510360012814  6.036227726463191  22.83647441111954  46.35347640347901  -8.579779793995252  -10.523974021457114  -22.31480609082006  5.50362242208459  42.322359609921094  22.482325255116976  120.000000
